<?xml version="1.0" standalone="no"?>
<!DOCTYPE svg PUBLIC "-//W3C//DTD SVG 20010904//EN"
 "http://www.w3.org/TR/2001/REC-SVG-20010904/DTD/svg10.dtd">
<svg version="1.0" xmlns="http://www.w3.org/2000/svg"
 width="385.000000pt" height="236.000000pt" viewBox="0 0 385.000000 236.000000"
 preserveAspectRatio="xMidYMid meet">

<g transform="translate(0.000000,236.000000) scale(0.100000,-0.100000)"
fill="#000000" stroke="none">
<path d="M1892 1807 c-270 -270 -492 -500 -492 -509 0 -9 10 -20 21 -23 17 -6
36 8 100 71 l79 79 0 -487 c0 -431 2 -487 16 -499 11 -9 20 -10 32 -2 14 8 18
29 20 101 l3 91 91 3 c72 2 93 6 101 20 8 12 7 21 -2 32 -10 12 -33 16 -102
16 l-89 0 0 165 c0 155 1 165 19 165 26 0 44 25 36 50 -4 13 -15 20 -31 20
-23 0 -24 3 -24 65 l0 65 154 0 c128 0 156 3 167 16 9 11 10 20 2 32 -9 15
-33 17 -167 20 l-156 3 0 92 0 92 173 173 172 172 116 0 c94 0 119 3 130 16 9
11 10 20 2 32 -8 13 -31 18 -97 22 l-86 5 160 160 160 160 260 -260 260 -260
-51 -5 c-59 -6 -82 -27 -60 -54 10 -12 33 -16 95 -16 l81 -1 67 -64 67 -64
-86 -3 c-67 -2 -88 -7 -96 -20 -8 -12 -7 -21 2 -32 10 -12 33 -16 102 -16 l89
0 0 -64 c0 -63 0 -64 -30 -69 -46 -10 -36 -67 12 -67 15 0 18 -9 18 -65 l0
-64 -91 -3 c-73 -2 -94 -6 -102 -20 -8 -12 -7 -21 2 -32 10 -12 33 -16 102
-16 l89 0 0 -164 0 -163 -30 -6 c-46 -10 -36 -67 12 -67 15 0 18 -9 18 -65 l0
-65 -114 0 c-63 0 -121 -3 -130 -6 -19 -7 -21 -35 -4 -52 17 -17 289 -17 306
0 9 9 12 133 12 497 l0 486 78 -78 c80 -80 106 -92 117 -56 6 19 -66 95 -486
515 -272 272 -501 494 -509 494 -8 0 -237 -222 -508 -493z"/>
<path d="M1681 2156 c-8 -9 -11 -45 -9 -98 3 -82 3 -83 31 -86 l27 -3 0 -88
c0 -93 10 -116 47 -109 16 3 18 16 18 128 l0 125 -32 3 c-30 3 -33 6 -33 38
l0 34 100 0 100 0 0 -34 c0 -30 -3 -35 -27 -38 -27 -3 -28 -5 -28 -63 0 -57 1
-60 25 -60 21 0 26 5 28 32 3 28 7 32 35 35 l32 3 3 85 c2 71 0 87 -14 97 -26
19 -287 18 -303 -1z"/>
<path d="M2540 1881 c-15 -28 12 -51 60 -51 48 0 75 23 60 51 -8 15 -22 19
-60 19 -38 0 -52 -4 -60 -19z"/>
<path d="M2306 1715 c-59 -21 -108 -66 -140 -129 -27 -52 -30 -67 -34 -189 -4
-116 -2 -135 12 -150 15 -15 45 -17 256 -17 211 0 241 2 256 17 14 15 16 34
12 150 -4 122 -7 137 -34 190 -61 120 -200 174 -328 128z m64 -135 l0 -80 -85
0 -85 0 15 37 c26 61 95 123 138 123 15 0 17 -10 17 -80z m118 66 c39 -20 78
-65 97 -108 l15 -38 -85 0 -85 0 0 80 c0 88 5 94 58 66z m-118 -281 l0 -65
-85 0 -85 0 0 65 0 65 85 0 85 0 0 -65z m230 0 l0 -65 -85 0 -85 0 0 65 0 65
85 0 85 0 0 -65z"/>
<path d="M2012 1688 c-31 -31 5 -61 65 -56 39 3 60 25 50 52 -8 19 -96 23
-115 4z"/>
<path d="M1812 1488 c-18 -18 -15 -36 7 -48 11 -5 65 -10 120 -10 77 0 103 4
115 16 12 12 13 20 6 35 -10 17 -22 19 -123 19 -75 0 -117 -4 -125 -12z"/>
<path d="M2739 1484 c-9 -11 -10 -20 -2 -32 15 -24 111 -24 126 0 18 28 -9 48
-63 48 -31 0 -52 -5 -61 -16z"/>
<path d="M2809 1284 c-9 -11 -10 -20 -2 -32 15 -25 171 -25 186 0 21 33 -8 48
-93 48 -59 0 -81 -4 -91 -16z"/>
<path d="M1883 1093 c-17 -6 -16 -38 1 -52 23 -19 166 -10 179 11 8 12 7 21
-2 32 -10 12 -32 16 -90 15 -42 0 -82 -3 -88 -6z"/>
<path d="M2142 1088 c-8 -8 -12 -45 -12 -100 l0 -88 -114 0 c-126 0 -146 -4
-146 -29 0 -35 21 -41 142 -41 l118 0 0 -165 0 -164 -56 -3 c-64 -3 -88 -23
-65 -52 17 -20 160 -23 179 -4 9 9 12 89 12 300 l0 288 200 0 200 0 0 -129 0
-130 -26 -3 c-56 -6 -54 -68 2 -68 23 0 23 -1 26 -126 3 -106 6 -129 20 -137
12 -8 21 -7 32 2 14 11 16 42 16 202 0 178 1 189 19 189 26 0 44 25 36 50 -4
13 -15 20 -31 20 -24 0 -24 1 -24 88 0 55 -4 92 -12 100 -17 17 -499 17 -516
0z"/>
<path d="M2739 1084 c-24 -29 1 -49 61 -49 38 0 56 5 63 17 18 28 -9 48 -63
48 -31 0 -52 -5 -61 -16z"/>
<path d="M3659 985 c-15 -8 -34 -30 -43 -49 -15 -32 -20 -35 -76 -41 -33 -4
-62 -11 -65 -15 -3 -4 24 -11 59 -15 59 -6 66 -9 95 -46 30 -36 36 -39 82 -39
41 0 54 5 74 26 86 93 -16 239 -126 179z"/>
<path d="M2940 881 c-15 -28 12 -51 60 -51 48 0 75 23 60 51 -8 15 -22 19 -60
19 -38 0 -52 -4 -60 -19z"/>
<path d="M3565 741 c-51 -23 -102 -66 -120 -102 -24 -45 -19 -138 10 -201 14
-29 25 -65 25 -81 0 -15 -18 -64 -41 -108 -23 -46 -39 -91 -37 -105 2 -19 43
43 171 255 178 298 183 311 134 346 -29 20 -93 18 -142 -4z"/>
<path d="M1940 681 c-15 -28 12 -51 60 -51 48 0 75 23 60 51 -8 15 -22 19 -60
19 -38 0 -52 -4 -60 -19z"/>
<path d="M2741 681 c-8 -15 -7 -23 5 -35 12 -13 38 -16 118 -16 114 0 151 13
130 47 -10 15 -28 18 -127 21 -107 2 -117 1 -126 -17z"/>
<path d="M1740 481 c-15 -28 12 -51 60 -51 48 0 75 23 60 51 -8 15 -22 19 -60
19 -38 0 -52 -4 -60 -19z"/>
<path d="M1414 356 c-15 -12 -17 -18 -8 -33 10 -15 28 -18 127 -21 107 -2 117
-1 126 17 8 15 7 23 -5 35 -21 22 -211 23 -240 2z"/>
<path d="M1746 354 c-12 -12 -13 -20 -6 -35 11 -19 27 -19 727 -17 678 3 716
4 727 21 9 15 7 21 -8 33 -17 12 -126 14 -722 14 -625 0 -704 -2 -718 -16z"/>
<path d="M3280 355 c-6 -8 -10 -22 -8 -32 5 -26 106 -26 122 0 9 15 7 21 -8
33 -26 18 -90 18 -106 -1z"/>
<path d="M260 140 c0 -110 0 -111 23 -108 18 2 23 11 27 48 4 37 9 45 25 45
17 0 20 -8 23 -48 3 -43 5 -48 25 -45 18 2 22 10 25 49 4 60 -27 103 -69 97
-26 -4 -28 -2 -31 31 -2 29 -8 37 -25 39 -23 3 -23 2 -23 -108z"/>
<path d="M757 244 c-9 -9 -9 -176 -1 -198 9 -23 45 -20 51 5 6 20 6 20 29 -2
24 -22 54 -20 54 4 0 8 -9 22 -20 32 -19 17 -19 20 -4 36 18 20 12 49 -9 49
-8 0 -21 -7 -28 -17 -12 -14 -15 -10 -19 38 -4 45 -8 54 -25 57 -12 2 -24 0
-28 -4z"/>
<path d="M2522 228 c2 -15 10 -23 23 -23 30 0 27 39 -3 43 -20 3 -23 0 -20
-20z"/>
<path d="M3017 243 c-4 -3 -7 -46 -7 -94 0 -96 11 -119 56 -119 19 0 24 5 24
25 0 16 -6 25 -15 25 -12 0 -15 16 -15 85 0 76 -2 85 -18 85 -10 0 -22 -3 -25
-7z"/>
<path d="M3110 153 c0 -105 7 -123 47 -123 29 0 42 29 20 45 -12 9 -17 32 -19
91 -3 73 -5 79 -25 82 -23 3 -23 1 -23 -95z"/>
<path d="M108 224 c-35 -18 -48 -43 -48 -89 0 -47 13 -71 50 -90 35 -18 73
-19 103 -4 29 16 28 14 21 33 -5 14 -15 16 -49 11 -48 -8 -75 10 -75 50 0 40
27 58 75 50 34 -5 44 -3 49 11 15 39 -71 58 -126 28z"/>
<path d="M1171 226 c-31 -17 -50 -53 -51 -94 0 -50 54 -102 107 -102 47 0 79
20 70 43 -5 13 -15 16 -50 11 -39 -6 -46 -3 -61 17 -36 52 -3 96 64 85 32 -5
42 -3 47 10 14 38 -74 59 -126 30z"/>
<path d="M1827 224 c-4 -4 -7 -16 -7 -26 0 -10 -4 -18 -10 -18 -5 0 -10 -11
-10 -25 0 -14 4 -25 9 -25 5 0 11 -18 15 -40 7 -43 39 -69 70 -57 20 8 21 36
1 43 -23 9 -19 51 5 57 26 7 26 37 1 44 -11 3 -21 15 -23 27 -3 21 -37 34 -51
20z"/>
<path d="M2410 205 c0 -16 -6 -25 -15 -25 -8 0 -15 -9 -15 -20 0 -11 7 -23 15
-26 9 -4 15 -19 15 -39 0 -19 7 -41 16 -49 18 -19 60 -21 66 -3 7 18 -2 37
-18 37 -23 0 -17 47 6 53 12 3 20 14 20 26 0 14 -6 21 -20 21 -15 0 -20 7 -20
25 0 20 -5 25 -25 25 -20 0 -25 -5 -25 -25z"/>
<path d="M430 130 c0 -71 27 -98 98 -98 l52 0 0 75 c0 71 -1 74 -22 71 -19 -2
-24 -11 -28 -48 -4 -37 -9 -45 -25 -45 -17 0 -20 8 -23 48 -3 42 -5 47 -28 47
-22 0 -24 -4 -24 -50z"/>
<path d="M623 154 c-20 -20 -24 -31 -19 -57 11 -59 83 -89 121 -51 23 23 2 45
-36 37 -26 -5 -29 -3 -29 22 0 25 3 27 30 22 23 -5 32 -2 40 13 8 15 6 21 -9
30 -33 17 -71 11 -98 -16z"/>
<path d="M920 165 c-20 -24 -3 -63 33 -80 l32 -14 -37 5 c-33 5 -38 4 -38 -14
0 -23 18 -32 64 -32 39 0 56 15 56 51 0 22 -7 30 -37 42 l-38 16 31 0 c34 1
53 25 28 35 -29 11 -82 6 -94 -9z"/>
<path d="M1340 160 c-60 -60 13 -155 95 -124 45 18 48 111 5 134 -31 16 -79
11 -100 -10z m78 -52 c-2 -15 -10 -23 -23 -23 -13 0 -21 8 -23 23 -3 18 1 22
23 22 22 0 26 -4 23 -22z"/>
<path d="M1494 165 c-3 -7 -4 -39 -2 -71 2 -48 6 -59 22 -62 24 -5 36 14 36
61 0 30 4 37 20 37 16 0 20 -7 20 -37 0 -47 12 -66 36 -61 16 3 19 12 18 56
-2 73 -20 90 -91 90 -34 0 -56 -5 -59 -13z"/>
<path d="M1681 166 c-21 -26 -9 -59 29 -79 l35 -18 -36 6 c-27 4 -38 2 -42
-10 -8 -19 22 -35 66 -35 67 0 78 62 17 92 l-35 18 33 0 c26 0 33 4 30 18 -4
23 -79 30 -97 8z"/>
<path d="M1935 172 c-8 -9 -5 -116 4 -130 5 -8 17 -12 27 -10 15 2 20 13 22
50 3 42 6 47 30 50 19 2 28 10 30 25 3 20 -1 21 -52 21 -30 0 -58 -3 -61 -6z"/>
<path d="M2070 126 c0 -74 21 -95 94 -93 l51 2 3 73 c3 71 2 72 -22 72 -23 0
-25 -4 -28 -47 -3 -40 -6 -48 -23 -48 -16 0 -21 8 -25 45 -4 37 -9 46 -27 48
-22 3 -23 0 -23 -52z"/>
<path d="M2262 160 c-32 -30 -30 -82 4 -109 31 -25 76 -27 94 -6 20 25 5 45
-32 43 -27 -3 -33 1 -33 17 0 16 6 20 32 18 25 -2 33 2 38 18 13 41 -64 55
-103 19z"/>
<path d="M2520 105 c0 -74 1 -76 23 -73 20 3 22 8 22 73 0 65 -2 70 -22 73
-22 3 -23 1 -23 -73z"/>
<path d="M2612 157 c-59 -62 11 -152 93 -121 24 9 44 55 38 87 -11 57 -91 77
-131 34z m78 -47 c0 -24 -26 -38 -42 -22 -16 16 -2 42 22 42 13 0 20 -7 20
-20z"/>
<path d="M2765 172 c-7 -7 -6 -107 1 -126 8 -21 40 -21 48 0 3 9 6 31 6 50 0
27 4 34 20 34 16 0 20 -7 20 -37 0 -47 12 -66 36 -61 16 3 19 12 19 55 -1 72
-20 91 -90 91 -30 0 -57 -3 -60 -6z"/>
<path d="M3215 155 c-14 -13 -25 -36 -25 -50 0 -58 86 -98 125 -59 22 23 2 45
-34 38 -19 -4 -30 -1 -34 8 -9 25 9 41 37 34 19 -5 28 -1 36 13 22 43 -66 56
-105 16z"/>
</g>
</svg>
